<svg xmlns="http://www.w3.org/2000/svg" viewBox="0 0 400 400">
  <defs>
    <path id="bottomCurve" d="M 70,290 Q 200,360 330,290" />
  </defs>

  <!-- White Version for Dark Backgrounds -->
  <!-- Outer Ring -->
  <circle cx="200" cy="200" r="195" fill="none" stroke="#FFFFFF" stroke-width="8"/>
  <circle cx="200" cy="200" r="175" fill="none" stroke="#FFFFFF" stroke-width="2"/>
  
  <!-- Steam -->
  <path d="M 185,60 Q 190,50 185,40" stroke="#FFFFFF" stroke-width="3" fill="none"/>
  <path d="M 200,55 Q 205,45 200,35" stroke="#FFFFFF" stroke-width="3" fill="none"/>
  <path d="M 215,60 Q 220,50 215,40" stroke="#FFFFFF" stroke-width="3" fill="none"/>
  
  <!-- Top Cup -->
  <path d="M 170,70 L 230,70 L 225,100 Q 200,110 175,100 Z" fill="#FFFFFF"/>
  <path d="M 230,75 Q 240,75 240,85 Q 240,95 230,95" stroke="#FFFFFF" stroke-width="4" fill="none"/>
  
  <!-- Stars -->
  <polygon points="140,85 145,95 155,95 147,102 150,112 140,105 130,112 133,102 125,95 135,95" fill="#FFFFFF"/>
  <polygon points="260,85 265,95 275,95 267,102 270,112 260,105 250,112 253,102 245,95 255,95" fill="#FFFFFF"/>

  <!-- Center Text -->
  <text x="200" y="210" font-family="'Times New Roman', serif" font-weight="bold" font-size="120" fill="#FFFFFF" text-anchor="middle">C2B</text>
  
  <g transform="translate(0, 30)">
    <text x="200" y="225" font-family="sans-serif" font-weight="bold" font-size="40" fill="#FFFFFF" text-anchor="middle" letter-spacing="5">- CAFÉ -</text>
  </g>

  <!-- Bottom Curved Text -->
  <text font-family="'Georgia', serif" font-weight="bold" font-size="24" fill="#FFFFFF">
    <textPath href="#bottomCurve" startOffset="50%" text-anchor="middle">
      Sip. Smile. Stay awhile.
    </textPath>
  </text>
  
  <!-- Bottom Smiley Cup -->
  <g transform="translate(180, 330) scale(0.8)">
    <path d="M 0,0 L 50,0 L 45,40 Q 25,55 5,40 Z" fill="none" stroke="#FFFFFF" stroke-width="3"/> 
    <path d="M 50,10 Q 65,10 65,25 Q 65,40 50,40" stroke="#FFFFFF" stroke-width="3" fill="none"/>
    <circle cx="15" cy="15" r="2" fill="#FFFFFF"/>
    <circle cx="35" cy="15" r="2" fill="#FFFFFF"/>
    <path d="M 15,25 Q 25,35 35,25" stroke="#FFFFFF" stroke-width="2" fill="none"/>
  </g>
</svg>
